<svg width="40" height="40" viewBox="0 0 40 40" fill="none" xmlns="http://www.w3.org/2000/svg">
<path opacity="0.4" d="M39.5 20C39.5 25.3849 37.3179 30.2592 33.7886 33.7886C30.2592 37.3179 25.3849 39.5 20 39.5C14.6151 39.5 9.74077 37.3179 6.21142 33.7886C2.68206 30.2592 0.5 25.3849 0.5 20C0.5 14.6151 2.68206 9.74077 6.21142 6.21142C9.74077 2.68206 14.6151 0.5 20 0.5C25.3849 0.5 30.2592 2.68206 33.7886 6.21142C37.3179 9.74077 39.5 14.6151 39.5 20Z" fill="#C8D3D7" stroke="#C8D3D7"/>
<path d="M9.39063 16.0001L9.39063 16C9.39037 14.5235 9.9838 13.1089 11.0374 12.0744C12.091 11.04 13.5162 10.4726 14.9925 10.5L14.9925 10.5001L15.0044 10.5C16.7692 10.4907 18.4532 11.2391 19.6288 12.5554L20.0017 12.9729L20.3746 12.5554C21.5503 11.2391 23.2343 10.4907 24.9991 10.5L24.9991 10.5002L25.011 10.5C26.4873 10.4726 27.9125 11.04 28.9661 12.0744C30.0197 13.1089 30.6131 14.5235 30.6128 16V16.0001C30.6128 18.7723 28.9599 21.2611 26.7097 23.5477C25.591 24.6844 24.3441 25.7521 23.1171 26.7636C22.7653 27.0537 22.4139 27.3401 22.0676 27.6223C21.3429 28.2129 20.6406 28.7853 20.0034 29.335C19.3384 28.756 18.6024 28.1542 17.8436 27.5337C17.5286 27.2762 17.2097 27.0155 16.8903 26.7518C15.6633 25.7389 14.4161 24.6725 13.2967 23.5377C11.0452 21.2551 9.39063 18.7741 9.39063 16.0001Z" stroke="#888E97"/>
</svg>
