<svg width="40" height="40" viewBox="0 0 48 48" fill="none" xmlns="http://www.w3.org/2000/svg">
<path opacity="0.4" d="M47.5 24C47.5 30.4895 44.8702 36.3638 40.617 40.617C36.3638 44.8702 30.4895 47.5 24 47.5C17.5105 47.5 11.6362 44.8702 7.38299 40.617C3.12978 36.3638 0.5 30.4895 0.5 24C0.5 17.5105 3.12978 11.6362 7.38299 7.38299C11.6362 3.12978 17.5105 0.5 24 0.5C30.4895 0.5 36.3638 3.12978 40.617 7.38299C44.8702 11.6362 47.5 17.5105 47.5 24Z" fill="#C8D3D7" stroke="#C8D3D7"/>
<path d="M10.6667 19.2C10.6664 17.2671 11.4433 15.4153 12.8225 14.0611C14.2017 12.707 16.0675 11.9642 18.0001 12C20.2898 11.9879 22.4747 12.9589 24.0001 14.6667C25.5254 12.9589 27.7103 11.9879 30.0001 12C31.9326 11.9642 33.7984 12.707 35.1777 14.0611C36.5569 15.4153 37.3337 17.2671 37.3334 19.2C37.3334 26.3413 28.8281 31.7333 24.0001 36C19.1827 31.6973 10.6667 26.3467 10.6667 19.2Z" fill="#F7CA38"/>
</svg>
