<?xml version="1.0" standalone="no"?>
<!DOCTYPE svg PUBLIC "-//W3C//DTD SVG 20010904//EN"
 "http://www.w3.org/TR/2001/REC-SVG-20010904/DTD/svg10.dtd">
<svg version="1.0" xmlns="http://www.w3.org/2000/svg"
 width="50.000000pt" height="50.000000pt" viewBox="0 0 50.000000 50.000000"
 preserveAspectRatio="xMidYMid meet">

<g transform="translate(0.000000,50.000000) scale(0.100000,-0.100000)"
fill="#000000" stroke="none">
<path d="M161 483 c-88 -31 -161 -136 -161 -233 0 -132 118 -250 250 -250 60
0 130 30 175 75 188 188 -12 497 -264 408z m39 -138 l0 -45 -45 0 -45 0 0 45
0 45 45 0 45 0 0 -45z m190 0 l0 -45 -45 0 -45 0 0 45 0 45 45 0 45 0 0 -45z
m-95 -95 l0 -45 -45 0 c-44 0 -45 1 -48 33 -5 54 2 64 50 60 l43 -3 0 -45z
m-95 -95 l0 -45 -45 0 -45 0 0 45 0 45 45 0 45 0 0 -45z m190 0 l0 -45 -45 0
-45 0 0 45 0 45 45 0 45 0 0 -45z"/>
</g>
</svg>
