<svg width="120" height="38" viewBox="0 0 120 38" fill="none" xmlns="http://www.w3.org/2000/svg">
<rect width="120" height="38" rx="19" fill="#F7CA38"/>
<path d="M20.152 22.76C19.432 23.176 18.648 23.336 17.848 23.336C15.48 23.336 13.8 21.672 13.8 19.4C13.8 17.08 15.48 15.464 17.864 15.464C19.064 15.464 20.072 15.864 20.952 16.744L22.264 15.464C21.208 14.264 19.64 13.64 17.768 13.64C14.264 13.64 11.704 16.056 11.704 19.4C11.704 22.744 14.264 25.16 17.736 25.16C19.32 25.16 20.952 24.68 22.12 23.736V19.272H20.152V22.76ZM28.2714 25.112C30.9274 25.112 32.8314 23.288 32.8314 20.728C32.8314 18.168 30.9274 16.36 28.2714 16.36C25.6474 16.36 23.7274 18.168 23.7274 20.728C23.7274 23.288 25.6474 25.112 28.2714 25.112ZM28.2714 23.4C26.8314 23.4 25.7434 22.36 25.7434 20.728C25.7434 19.096 26.8314 18.056 28.2714 18.056C29.7274 18.056 30.8154 19.096 30.8154 20.728C30.8154 22.36 29.7274 23.4 28.2714 23.4ZM43.2618 23.112C42.9578 23.352 42.5578 23.464 42.1418 23.464C41.3738 23.464 40.9578 23.016 40.9578 22.184V18.12H43.2458V16.52H40.9578V14.568H38.9578V16.52H37.5498V18.12H38.9578V22.232C38.9578 24.12 40.0298 25.112 41.9018 25.112C42.6218 25.112 43.3418 24.92 43.8218 24.536L43.2618 23.112ZM48.7858 25.112C51.4418 25.112 53.3458 23.288 53.3458 20.728C53.3458 18.168 51.4418 16.36 48.7858 16.36C46.1618 16.36 44.2418 18.168 44.2418 20.728C44.2418 23.288 46.1618 25.112 48.7858 25.112ZM48.7858 23.4C47.3458 23.4 46.2578 22.36 46.2578 20.728C46.2578 19.096 47.3458 18.056 48.7858 18.056C50.2418 18.056 51.3298 19.096 51.3298 20.728C51.3298 22.36 50.2418 23.4 48.7858 23.4ZM63.7761 23.112C63.4721 23.352 63.0721 23.464 62.6561 23.464C61.8881 23.464 61.4721 23.016 61.4721 22.184V18.12H63.7601V16.52H61.4721V14.568H59.4721V16.52H58.0641V18.12H59.4721V22.232C59.4721 24.12 60.5441 25.112 62.4161 25.112C63.1361 25.112 63.8561 24.92 64.3361 24.536L63.7761 23.112ZM69.3001 25.112C71.9561 25.112 73.8601 23.288 73.8601 20.728C73.8601 18.168 71.9561 16.36 69.3001 16.36C66.6761 16.36 64.7561 18.168 64.7561 20.728C64.7561 23.288 66.6761 25.112 69.3001 25.112ZM69.3001 23.4C67.8601 23.4 66.7721 22.36 66.7721 20.728C66.7721 19.096 67.8601 18.056 69.3001 18.056C70.7561 18.056 71.8441 19.096 71.8441 20.728C71.8441 22.36 70.7561 23.4 69.3001 23.4ZM80.2686 16.36C79.1006 16.36 78.1086 16.76 77.4366 17.576V16.456H75.5326V28.104H77.5326V23.96C78.2206 24.744 79.1806 25.112 80.2686 25.112C82.7646 25.112 84.6046 23.384 84.6046 20.728C84.6046 18.088 82.7646 16.36 80.2686 16.36ZM80.0446 23.4C78.6046 23.4 77.5006 22.36 77.5006 20.728C77.5006 19.096 78.6046 18.056 80.0446 18.056C81.4846 18.056 82.5726 19.096 82.5726 20.728C82.5726 22.36 81.4846 23.4 80.0446 23.4Z" fill="#4A525F"/>
<path d="M93.2929 20.2929C92.9024 20.6834 92.9024 21.3166 93.2929 21.7071C93.6834 22.0976 94.3166 22.0976 94.7071 21.7071L93.2929 20.2929ZM98 17L98.7071 16.2929C98.3166 15.9024 97.6834 15.9024 97.2929 16.2929L98 17ZM101.293 21.7071C101.683 22.0976 102.317 22.0976 102.707 21.7071C103.098 21.3166 103.098 20.6834 102.707 20.2929L101.293 21.7071ZM94.7071 21.7071L98.7071 17.7071L97.2929 16.2929L93.2929 20.2929L94.7071 21.7071ZM97.2929 17.7071L101.293 21.7071L102.707 20.2929L98.7071 16.2929L97.2929 17.7071Z" fill="#4A525F"/>
</svg>
