<svg width="25" height="24" viewBox="0 0 25 24" fill="none" xmlns="http://www.w3.org/2000/svg">
<path d="M17.6422 10.7085C18.0335 10.3188 18.0348 9.68559 17.645 9.29429C17.2553 8.903 16.6221 8.90174 16.2308 9.29149L17.6422 10.7085ZM12.9207 14L12.2149 14.7085C12.6051 15.0972 13.2362 15.0972 13.6264 14.7085L12.9207 14ZM9.61048 9.29149C9.21919 8.90174 8.58602 8.903 8.19627 9.29429C7.80652 9.68559 7.80778 10.3188 8.19907 10.7085L9.61048 9.29149ZM16.2308 9.29149L12.2149 13.2915L13.6264 14.7085L17.6422 10.7085L16.2308 9.29149ZM13.6264 13.2915L9.61048 9.29149L8.19907 10.7085L12.2149 14.7085L13.6264 13.2915Z" fill="#4A525F"/>
</svg>
